<?xml version="1.0" standalone="no"?>
<!DOCTYPE svg PUBLIC "-//W3C//DTD SVG 20010904//EN"
 "http://www.w3.org/TR/2001/REC-SVG-20010904/DTD/svg10.dtd">
<svg version="1.0" xmlns="http://www.w3.org/2000/svg"
 width="350.000000pt" height="350.000000pt" viewBox="0 0 350.000000 350.000000"
 preserveAspectRatio="xMidYMid meet">
<metadata>
Created by potrace 1.14, written by Peter Selinger 2001-2017
</metadata>
<g transform="translate(0.000000,350.000000) scale(0.100000,-0.100000)"
fill="#000000" stroke="none">
<path d="M1560 3239 c-227 -28 -465 -117 -650 -244 -239 -163 -415 -363 -533
-607 -398 -821 16 -1805 882 -2099 47 -16 90 -29 97 -29 10 0 14 93 16 423 4
472 5 473 79 623 22 44 64 110 93 146 55 66 157 151 203 169 14 5 263 9 597 9
539 0 577 -1 650 -20 92 -23 167 -64 223 -120 l40 -41 12 76 c24 164 8 411
-39 588 -91 345 -309 655 -605 863 -94 66 -288 162 -399 198 -190 63 -469 90
-666 65z m-171 -438 c323 -100 427 -516 188 -750 -98 -96 -186 -133 -317 -134
-207 -1 -378 122 -441 316 -32 99 -24 228 19 321 35 75 115 165 180 203 107
63 255 80 371 44z"/>
<path d="M1170 2584 l-35 -15 27 -15 c57 -30 66 -97 17 -138 -42 -36 -83 -34
-119 4 -27 29 -28 29 -34 7 -39 -146 72 -286 227 -287 135 0 229 94 229 229 0
160 -170 277 -312 215z"/>
</g>
</svg>
